<?xml version="1.0" encoding="utf-8" standalone="no"?>
<!DOCTYPE svg PUBLIC "-//W3C//DTD SVG 1.1//EN"
  "http://www.w3.org/Graphics/SVG/1.1/DTD/svg11.dtd">
<svg xmlns:xlink="http://www.w3.org/1999/xlink" width="504pt" height="360pt" viewBox="0 0 504 360" xmlns="http://www.w3.org/2000/svg" version="1.1">
 <metadata>
  <rdf:RDF xmlns:dc="http://purl.org/dc/elements/1.1/" xmlns:cc="http://creativecommons.org/ns#" xmlns:rdf="http://www.w3.org/1999/02/22-rdf-syntax-ns#">
   <cc:Work>
    <dc:type rdf:resource="http://purl.org/dc/dcmitype/StillImage"/>
    <dc:date>2025-08-22T21:05:50.309885</dc:date>
    <dc:format>image/svg+xml</dc:format>
    <dc:creator>
     <cc:Agent>
      <dc:title>Matplotlib v3.9.2, https://matplotlib.org/</dc:title>
     </cc:Agent>
    </dc:creator>
   </cc:Work>
  </rdf:RDF>
 </metadata>
 <defs>
  <style type="text/css">*{stroke-linejoin: round; stroke-linecap: butt}</style>
 </defs>
 <g id="figure_1">
  <g id="patch_1">
   <path d="M 0 360 
L 504 360 
L 504 0 
L 0 0 
z
" style="fill: #ffffff"/>
  </g>
  <g id="axes_1">
   <g id="patch_2">
    <path d="M 153.7 318.04 
L 493.2 318.04 
L 493.2 25.44 
L 153.7 25.44 
z
" style="fill: #ffffff"/>
   </g>
   <g id="patch_3">
    <path d="M 153.7 304.74 
L 247.570968 304.74 
L 247.570968 290.361622 
L 153.7 290.361622 
z
" clip-path="url(#p3095ca90a5)" style="fill: #1f77b4"/>
   </g>
   <g id="patch_4">
    <path d="M 153.7 286.767027 
L 247.570968 286.767027 
L 247.570968 272.388649 
L 153.7 272.388649 
z
" clip-path="url(#p3095ca90a5)" style="fill: #1f77b4"/>
   </g>
   <g id="patch_5">
    <path d="M 153.7 268.794054 
L 247.570968 268.794054 
L 247.570968 254.415676 
L 153.7 254.415676 
z
" clip-path="url(#p3095ca90a5)" style="fill: #1f77b4"/>
   </g>
   <g id="patch_6">
    <path d="M 153.7 250.821081 
L 258.001075 250.821081 
L 258.001075 236.442703 
L 153.7 236.442703 
z
" clip-path="url(#p3095ca90a5)" style="fill: #1f77b4"/>
   </g>
   <g id="patch_7">
    <path d="M 153.7 232.848108 
L 268.431183 232.848108 
L 268.431183 218.46973 
L 153.7 218.46973 
z
" clip-path="url(#p3095ca90a5)" style="fill: #1f77b4"/>
   </g>
   <g id="patch_8">
    <path d="M 153.7 214.875135 
L 268.431183 214.875135 
L 268.431183 200.496757 
L 153.7 200.496757 
z
" clip-path="url(#p3095ca90a5)" style="fill: #1f77b4"/>
   </g>
   <g id="patch_9">
    <path d="M 153.7 196.902162 
L 278.86129 196.902162 
L 278.86129 182.523784 
L 153.7 182.523784 
z
" clip-path="url(#p3095ca90a5)" style="fill: #1f77b4"/>
   </g>
   <g id="patch_10">
    <path d="M 153.7 178.929189 
L 299.721505 178.929189 
L 299.721505 164.550811 
L 153.7 164.550811 
z
" clip-path="url(#p3095ca90a5)" style="fill: #1f77b4"/>
   </g>
   <g id="patch_11">
    <path d="M 153.7 160.956216 
L 310.151613 160.956216 
L 310.151613 146.577838 
L 153.7 146.577838 
z
" clip-path="url(#p3095ca90a5)" style="fill: #1f77b4"/>
   </g>
   <g id="patch_12">
    <path d="M 153.7 142.983243 
L 372.732258 142.983243 
L 372.732258 128.604865 
L 153.7 128.604865 
z
" clip-path="url(#p3095ca90a5)" style="fill: #1f77b4"/>
   </g>
   <g id="patch_13">
    <path d="M 153.7 125.01027 
L 383.162366 125.01027 
L 383.162366 110.631892 
L 153.7 110.631892 
z
" clip-path="url(#p3095ca90a5)" style="fill: #1f77b4"/>
   </g>
   <g id="patch_14">
    <path d="M 153.7 107.037297 
L 393.592473 107.037297 
L 393.592473 92.658919 
L 153.7 92.658919 
z
" clip-path="url(#p3095ca90a5)" style="fill: #1f77b4"/>
   </g>
   <g id="patch_15">
    <path d="M 153.7 89.064324 
L 424.882796 89.064324 
L 424.882796 74.685946 
L 153.7 74.685946 
z
" clip-path="url(#p3095ca90a5)" style="fill: #1f77b4"/>
   </g>
   <g id="patch_16">
    <path d="M 153.7 71.091351 
L 445.743011 71.091351 
L 445.743011 56.712973 
L 153.7 56.712973 
z
" clip-path="url(#p3095ca90a5)" style="fill: #1f77b4"/>
   </g>
   <g id="patch_17">
    <path d="M 153.7 53.118378 
L 477.033333 53.118378 
L 477.033333 38.74 
L 153.7 38.74 
z
" clip-path="url(#p3095ca90a5)" style="fill: #1f77b4"/>
   </g>
   <g id="matplotlib.axis_1">
    <g id="xtick_1">
     <g id="line2d_1">
      <defs>
       <path id="m98d41e0d07" d="M 0 0 
L 0 3.5 
" style="stroke: #000000; stroke-width: 0.8"/>
      </defs>
      <g>
       <use xlink:href="#m98d41e0d07" x="153.7" y="318.04" style="stroke: #000000; stroke-width: 0.8"/>
      </g>
     </g>
     <g id="text_1">
      <!-- 0 -->
      <g transform="translate(150.51875 332.638438) scale(0.1 -0.1)">
       <defs>
        <path id="DejaVuSans-30" d="M 2034 4250 
Q 1547 4250 1301 3770 
Q 1056 3291 1056 2328 
Q 1056 1369 1301 889 
Q 1547 409 2034 409 
Q 2525 409 2770 889 
Q 3016 1369 3016 2328 
Q 3016 3291 2770 3770 
Q 2525 4250 2034 4250 
z
M 2034 4750 
Q 2819 4750 3233 4129 
Q 3647 3509 3647 2328 
Q 3647 1150 3233 529 
Q 2819 -91 2034 -91 
Q 1250 -91 836 529 
Q 422 1150 422 2328 
Q 422 3509 836 4129 
Q 1250 4750 2034 4750 
z
" transform="scale(0.015625)"/>
       </defs>
       <use xlink:href="#DejaVuSans-30"/>
      </g>
     </g>
    </g>
    <g id="xtick_2">
     <g id="line2d_2">
      <g>
       <use xlink:href="#m98d41e0d07" x="205.850538" y="318.04" style="stroke: #000000; stroke-width: 0.8"/>
      </g>
     </g>
     <g id="text_2">
      <!-- 5 -->
      <g transform="translate(202.669288 332.638438) scale(0.1 -0.1)">
       <defs>
        <path id="DejaVuSans-35" d="M 691 4666 
L 3169 4666 
L 3169 4134 
L 1269 4134 
L 1269 2991 
Q 1406 3038 1543 3061 
Q 1681 3084 1819 3084 
Q 2600 3084 3056 2656 
Q 3513 2228 3513 1497 
Q 3513 744 3044 326 
Q 2575 -91 1722 -91 
Q 1428 -91 1123 -41 
Q 819 9 494 109 
L 494 744 
Q 775 591 1075 516 
Q 1375 441 1709 441 
Q 2250 441 2565 725 
Q 2881 1009 2881 1497 
Q 2881 1984 2565 2268 
Q 2250 2553 1709 2553 
Q 1456 2553 1204 2497 
Q 953 2441 691 2322 
L 691 4666 
z
" transform="scale(0.015625)"/>
       </defs>
       <use xlink:href="#DejaVuSans-35"/>
      </g>
     </g>
    </g>
    <g id="xtick_3">
     <g id="line2d_3">
      <g>
       <use xlink:href="#m98d41e0d07" x="258.001075" y="318.04" style="stroke: #000000; stroke-width: 0.8"/>
      </g>
     </g>
     <g id="text_3">
      <!-- 10 -->
      <g transform="translate(251.638575 332.638438) scale(0.1 -0.1)">
       <defs>
        <path id="DejaVuSans-31" d="M 794 531 
L 1825 531 
L 1825 4091 
L 703 3866 
L 703 4441 
L 1819 4666 
L 2450 4666 
L 2450 531 
L 3481 531 
L 3481 0 
L 794 0 
L 794 531 
z
" transform="scale(0.015625)"/>
       </defs>
       <use xlink:href="#DejaVuSans-31"/>
       <use xlink:href="#DejaVuSans-30" x="63.623047"/>
      </g>
     </g>
    </g>
    <g id="xtick_4">
     <g id="line2d_4">
      <g>
       <use xlink:href="#m98d41e0d07" x="310.151613" y="318.04" style="stroke: #000000; stroke-width: 0.8"/>
      </g>
     </g>
     <g id="text_4">
      <!-- 15 -->
      <g transform="translate(303.789113 332.638438) scale(0.1 -0.1)">
       <use xlink:href="#DejaVuSans-31"/>
       <use xlink:href="#DejaVuSans-35" x="63.623047"/>
      </g>
     </g>
    </g>
    <g id="xtick_5">
     <g id="line2d_5">
      <g>
       <use xlink:href="#m98d41e0d07" x="362.302151" y="318.04" style="stroke: #000000; stroke-width: 0.8"/>
      </g>
     </g>
     <g id="text_5">
      <!-- 20 -->
      <g transform="translate(355.939651 332.638438) scale(0.1 -0.1)">
       <defs>
        <path id="DejaVuSans-32" d="M 1228 531 
L 3431 531 
L 3431 0 
L 469 0 
L 469 531 
Q 828 903 1448 1529 
Q 2069 2156 2228 2338 
Q 2531 2678 2651 2914 
Q 2772 3150 2772 3378 
Q 2772 3750 2511 3984 
Q 2250 4219 1831 4219 
Q 1534 4219 1204 4116 
Q 875 4013 500 3803 
L 500 4441 
Q 881 4594 1212 4672 
Q 1544 4750 1819 4750 
Q 2544 4750 2975 4387 
Q 3406 4025 3406 3419 
Q 3406 3131 3298 2873 
Q 3191 2616 2906 2266 
Q 2828 2175 2409 1742 
Q 1991 1309 1228 531 
z
" transform="scale(0.015625)"/>
       </defs>
       <use xlink:href="#DejaVuSans-32"/>
       <use xlink:href="#DejaVuSans-30" x="63.623047"/>
      </g>
     </g>
    </g>
    <g id="xtick_6">
     <g id="line2d_6">
      <g>
       <use xlink:href="#m98d41e0d07" x="414.452688" y="318.04" style="stroke: #000000; stroke-width: 0.8"/>
      </g>
     </g>
     <g id="text_6">
      <!-- 25 -->
      <g transform="translate(408.090188 332.638438) scale(0.1 -0.1)">
       <use xlink:href="#DejaVuSans-32"/>
       <use xlink:href="#DejaVuSans-35" x="63.623047"/>
      </g>
     </g>
    </g>
    <g id="xtick_7">
     <g id="line2d_7">
      <g>
       <use xlink:href="#m98d41e0d07" x="466.603226" y="318.04" style="stroke: #000000; stroke-width: 0.8"/>
      </g>
     </g>
     <g id="text_7">
      <!-- 30 -->
      <g transform="translate(460.240726 332.638438) scale(0.1 -0.1)">
       <defs>
        <path id="DejaVuSans-33" d="M 2597 2516 
Q 3050 2419 3304 2112 
Q 3559 1806 3559 1356 
Q 3559 666 3084 287 
Q 2609 -91 1734 -91 
Q 1441 -91 1130 -33 
Q 819 25 488 141 
L 488 750 
Q 750 597 1062 519 
Q 1375 441 1716 441 
Q 2309 441 2620 675 
Q 2931 909 2931 1356 
Q 2931 1769 2642 2001 
Q 2353 2234 1838 2234 
L 1294 2234 
L 1294 2753 
L 1863 2753 
Q 2328 2753 2575 2939 
Q 2822 3125 2822 3475 
Q 2822 3834 2567 4026 
Q 2313 4219 1838 4219 
Q 1578 4219 1281 4162 
Q 984 4106 628 3988 
L 628 4550 
Q 988 4650 1302 4700 
Q 1616 4750 1894 4750 
Q 2613 4750 3031 4423 
Q 3450 4097 3450 3541 
Q 3450 3153 3228 2886 
Q 3006 2619 2597 2516 
z
" transform="scale(0.015625)"/>
       </defs>
       <use xlink:href="#DejaVuSans-33"/>
       <use xlink:href="#DejaVuSans-30" x="63.623047"/>
      </g>
     </g>
    </g>
    <g id="text_8">
     <!-- Speeches -->
     <g transform="translate(299.349219 346.316563) scale(0.1 -0.1)">
      <defs>
       <path id="DejaVuSans-53" d="M 3425 4513 
L 3425 3897 
Q 3066 4069 2747 4153 
Q 2428 4238 2131 4238 
Q 1616 4238 1336 4038 
Q 1056 3838 1056 3469 
Q 1056 3159 1242 3001 
Q 1428 2844 1947 2747 
L 2328 2669 
Q 3034 2534 3370 2195 
Q 3706 1856 3706 1288 
Q 3706 609 3251 259 
Q 2797 -91 1919 -91 
Q 1588 -91 1214 -16 
Q 841 59 441 206 
L 441 856 
Q 825 641 1194 531 
Q 1563 422 1919 422 
Q 2459 422 2753 634 
Q 3047 847 3047 1241 
Q 3047 1584 2836 1778 
Q 2625 1972 2144 2069 
L 1759 2144 
Q 1053 2284 737 2584 
Q 422 2884 422 3419 
Q 422 4038 858 4394 
Q 1294 4750 2059 4750 
Q 2388 4750 2728 4690 
Q 3069 4631 3425 4513 
z
" transform="scale(0.015625)"/>
       <path id="DejaVuSans-70" d="M 1159 525 
L 1159 -1331 
L 581 -1331 
L 581 3500 
L 1159 3500 
L 1159 2969 
Q 1341 3281 1617 3432 
Q 1894 3584 2278 3584 
Q 2916 3584 3314 3078 
Q 3713 2572 3713 1747 
Q 3713 922 3314 415 
Q 2916 -91 2278 -91 
Q 1894 -91 1617 61 
Q 1341 213 1159 525 
z
M 3116 1747 
Q 3116 2381 2855 2742 
Q 2594 3103 2138 3103 
Q 1681 3103 1420 2742 
Q 1159 2381 1159 1747 
Q 1159 1113 1420 752 
Q 1681 391 2138 391 
Q 2594 391 2855 752 
Q 3116 1113 3116 1747 
z
" transform="scale(0.015625)"/>
       <path id="DejaVuSans-65" d="M 3597 1894 
L 3597 1613 
L 953 1613 
Q 991 1019 1311 708 
Q 1631 397 2203 397 
Q 2534 397 2845 478 
Q 3156 559 3463 722 
L 3463 178 
Q 3153 47 2828 -22 
Q 2503 -91 2169 -91 
Q 1331 -91 842 396 
Q 353 884 353 1716 
Q 353 2575 817 3079 
Q 1281 3584 2069 3584 
Q 2775 3584 3186 3129 
Q 3597 2675 3597 1894 
z
M 3022 2063 
Q 3016 2534 2758 2815 
Q 2500 3097 2075 3097 
Q 1594 3097 1305 2825 
Q 1016 2553 972 2059 
L 3022 2063 
z
" transform="scale(0.015625)"/>
       <path id="DejaVuSans-63" d="M 3122 3366 
L 3122 2828 
Q 2878 2963 2633 3030 
Q 2388 3097 2138 3097 
Q 1578 3097 1268 2742 
Q 959 2388 959 1747 
Q 959 1106 1268 751 
Q 1578 397 2138 397 
Q 2388 397 2633 464 
Q 2878 531 3122 666 
L 3122 134 
Q 2881 22 2623 -34 
Q 2366 -91 2075 -91 
Q 1284 -91 818 406 
Q 353 903 353 1747 
Q 353 2603 823 3093 
Q 1294 3584 2113 3584 
Q 2378 3584 2631 3529 
Q 2884 3475 3122 3366 
z
" transform="scale(0.015625)"/>
       <path id="DejaVuSans-68" d="M 3513 2113 
L 3513 0 
L 2938 0 
L 2938 2094 
Q 2938 2591 2744 2837 
Q 2550 3084 2163 3084 
Q 1697 3084 1428 2787 
Q 1159 2491 1159 1978 
L 1159 0 
L 581 0 
L 581 4863 
L 1159 4863 
L 1159 2956 
Q 1366 3272 1645 3428 
Q 1925 3584 2291 3584 
Q 2894 3584 3203 3211 
Q 3513 2838 3513 2113 
z
" transform="scale(0.015625)"/>
       <path id="DejaVuSans-73" d="M 2834 3397 
L 2834 2853 
Q 2591 2978 2328 3040 
Q 2066 3103 1784 3103 
Q 1356 3103 1142 2972 
Q 928 2841 928 2578 
Q 928 2378 1081 2264 
Q 1234 2150 1697 2047 
L 1894 2003 
Q 2506 1872 2764 1633 
Q 3022 1394 3022 966 
Q 3022 478 2636 193 
Q 2250 -91 1575 -91 
Q 1294 -91 989 -36 
Q 684 19 347 128 
L 347 722 
Q 666 556 975 473 
Q 1284 391 1588 391 
Q 1994 391 2212 530 
Q 2431 669 2431 922 
Q 2431 1156 2273 1281 
Q 2116 1406 1581 1522 
L 1381 1569 
Q 847 1681 609 1914 
Q 372 2147 372 2553 
Q 372 3047 722 3315 
Q 1072 3584 1716 3584 
Q 2034 3584 2315 3537 
Q 2597 3491 2834 3397 
z
" transform="scale(0.015625)"/>
      </defs>
      <use xlink:href="#DejaVuSans-53"/>
      <use xlink:href="#DejaVuSans-70" x="63.476562"/>
      <use xlink:href="#DejaVuSans-65" x="126.953125"/>
      <use xlink:href="#DejaVuSans-65" x="188.476562"/>
      <use xlink:href="#DejaVuSans-63" x="250"/>
      <use xlink:href="#DejaVuSans-68" x="304.980469"/>
      <use xlink:href="#DejaVuSans-65" x="368.359375"/>
      <use xlink:href="#DejaVuSans-73" x="429.882812"/>
     </g>
    </g>
   </g>
   <g id="matplotlib.axis_2">
    <g id="ytick_1">
     <g id="line2d_8">
      <defs>
       <path id="m3ffa3b4db3" d="M 0 0 
L -3.5 0 
" style="stroke: #000000; stroke-width: 0.8"/>
      </defs>
      <g>
       <use xlink:href="#m3ffa3b4db3" x="153.7" y="297.550811" style="stroke: #000000; stroke-width: 0.8"/>
      </g>
     </g>
     <g id="text_9">
      <!-- Jens Weidmann -->
      <g transform="translate(69.748437 301.35003) scale(0.1 -0.1)">
       <defs>
        <path id="DejaVuSans-4a" d="M 628 4666 
L 1259 4666 
L 1259 325 
Q 1259 -519 939 -900 
Q 619 -1281 -91 -1281 
L -331 -1281 
L -331 -750 
L -134 -750 
Q 284 -750 456 -515 
Q 628 -281 628 325 
L 628 4666 
z
" transform="scale(0.015625)"/>
        <path id="DejaVuSans-6e" d="M 3513 2113 
L 3513 0 
L 2938 0 
L 2938 2094 
Q 2938 2591 2744 2837 
Q 2550 3084 2163 3084 
Q 1697 3084 1428 2787 
Q 1159 2491 1159 1978 
L 1159 0 
L 581 0 
L 581 3500 
L 1159 3500 
L 1159 2956 
Q 1366 3272 1645 3428 
Q 1925 3584 2291 3584 
Q 2894 3584 3203 3211 
Q 3513 2838 3513 2113 
z
" transform="scale(0.015625)"/>
        <path id="DejaVuSans-20" transform="scale(0.015625)"/>
        <path id="DejaVuSans-57" d="M 213 4666 
L 850 4666 
L 1831 722 
L 2809 4666 
L 3519 4666 
L 4500 722 
L 5478 4666 
L 6119 4666 
L 4947 0 
L 4153 0 
L 3169 4050 
L 2175 0 
L 1381 0 
L 213 4666 
z
" transform="scale(0.015625)"/>
        <path id="DejaVuSans-69" d="M 603 3500 
L 1178 3500 
L 1178 0 
L 603 0 
L 603 3500 
z
M 603 4863 
L 1178 4863 
L 1178 4134 
L 603 4134 
L 603 4863 
z
" transform="scale(0.015625)"/>
        <path id="DejaVuSans-64" d="M 2906 2969 
L 2906 4863 
L 3481 4863 
L 3481 0 
L 2906 0 
L 2906 525 
Q 2725 213 2448 61 
Q 2172 -91 1784 -91 
Q 1150 -91 751 415 
Q 353 922 353 1747 
Q 353 2572 751 3078 
Q 1150 3584 1784 3584 
Q 2172 3584 2448 3432 
Q 2725 3281 2906 2969 
z
M 947 1747 
Q 947 1113 1208 752 
Q 1469 391 1925 391 
Q 2381 391 2643 752 
Q 2906 1113 2906 1747 
Q 2906 2381 2643 2742 
Q 2381 3103 1925 3103 
Q 1469 3103 1208 2742 
Q 947 2381 947 1747 
z
" transform="scale(0.015625)"/>
        <path id="DejaVuSans-6d" d="M 3328 2828 
Q 3544 3216 3844 3400 
Q 4144 3584 4550 3584 
Q 5097 3584 5394 3201 
Q 5691 2819 5691 2113 
L 5691 0 
L 5113 0 
L 5113 2094 
Q 5113 2597 4934 2840 
Q 4756 3084 4391 3084 
Q 3944 3084 3684 2787 
Q 3425 2491 3425 1978 
L 3425 0 
L 2847 0 
L 2847 2094 
Q 2847 2600 2669 2842 
Q 2491 3084 2119 3084 
Q 1678 3084 1418 2786 
Q 1159 2488 1159 1978 
L 1159 0 
L 581 0 
L 581 3500 
L 1159 3500 
L 1159 2956 
Q 1356 3278 1631 3431 
Q 1906 3584 2284 3584 
Q 2666 3584 2933 3390 
Q 3200 3197 3328 2828 
z
" transform="scale(0.015625)"/>
        <path id="DejaVuSans-61" d="M 2194 1759 
Q 1497 1759 1228 1600 
Q 959 1441 959 1056 
Q 959 750 1161 570 
Q 1363 391 1709 391 
Q 2188 391 2477 730 
Q 2766 1069 2766 1631 
L 2766 1759 
L 2194 1759 
z
M 3341 1997 
L 3341 0 
L 2766 0 
L 2766 531 
Q 2569 213 2275 61 
Q 1981 -91 1556 -91 
Q 1019 -91 701 211 
Q 384 513 384 1019 
Q 384 1609 779 1909 
Q 1175 2209 1959 2209 
L 2766 2209 
L 2766 2266 
Q 2766 2663 2505 2880 
Q 2244 3097 1772 3097 
Q 1472 3097 1187 3025 
Q 903 2953 641 2809 
L 641 3341 
Q 956 3463 1253 3523 
Q 1550 3584 1831 3584 
Q 2591 3584 2966 3190 
Q 3341 2797 3341 1997 
z
" transform="scale(0.015625)"/>
       </defs>
       <use xlink:href="#DejaVuSans-4a"/>
       <use xlink:href="#DejaVuSans-65" x="29.492188"/>
       <use xlink:href="#DejaVuSans-6e" x="91.015625"/>
       <use xlink:href="#DejaVuSans-73" x="154.394531"/>
       <use xlink:href="#DejaVuSans-20" x="206.494141"/>
       <use xlink:href="#DejaVuSans-57" x="238.28125"/>
       <use xlink:href="#DejaVuSans-65" x="331.283203"/>
       <use xlink:href="#DejaVuSans-69" x="392.806641"/>
       <use xlink:href="#DejaVuSans-64" x="420.589844"/>
       <use xlink:href="#DejaVuSans-6d" x="484.066406"/>
       <use xlink:href="#DejaVuSans-61" x="581.478516"/>
       <use xlink:href="#DejaVuSans-6e" x="642.757812"/>
       <use xlink:href="#DejaVuSans-6e" x="706.136719"/>
      </g>
     </g>
    </g>
    <g id="ytick_2">
     <g id="line2d_9">
      <g>
       <use xlink:href="#m3ffa3b4db3" x="153.7" y="279.577838" style="stroke: #000000; stroke-width: 0.8"/>
      </g>
     </g>
     <g id="text_10">
      <!-- Gabriel Makhlouf -->
      <g transform="translate(61.8375 283.377057) scale(0.1 -0.1)">
       <defs>
        <path id="DejaVuSans-47" d="M 3809 666 
L 3809 1919 
L 2778 1919 
L 2778 2438 
L 4434 2438 
L 4434 434 
Q 4069 175 3628 42 
Q 3188 -91 2688 -91 
Q 1594 -91 976 548 
Q 359 1188 359 2328 
Q 359 3472 976 4111 
Q 1594 4750 2688 4750 
Q 3144 4750 3555 4637 
Q 3966 4525 4313 4306 
L 4313 3634 
Q 3963 3931 3569 4081 
Q 3175 4231 2741 4231 
Q 1884 4231 1454 3753 
Q 1025 3275 1025 2328 
Q 1025 1384 1454 906 
Q 1884 428 2741 428 
Q 3075 428 3337 486 
Q 3600 544 3809 666 
z
" transform="scale(0.015625)"/>
        <path id="DejaVuSans-62" d="M 3116 1747 
Q 3116 2381 2855 2742 
Q 2594 3103 2138 3103 
Q 1681 3103 1420 2742 
Q 1159 2381 1159 1747 
Q 1159 1113 1420 752 
Q 1681 391 2138 391 
Q 2594 391 2855 752 
Q 3116 1113 3116 1747 
z
M 1159 2969 
Q 1341 3281 1617 3432 
Q 1894 3584 2278 3584 
Q 2916 3584 3314 3078 
Q 3713 2572 3713 1747 
Q 3713 922 3314 415 
Q 2916 -91 2278 -91 
Q 1894 -91 1617 61 
Q 1341 213 1159 525 
L 1159 0 
L 581 0 
L 581 4863 
L 1159 4863 
L 1159 2969 
z
" transform="scale(0.015625)"/>
        <path id="DejaVuSans-72" d="M 2631 2963 
Q 2534 3019 2420 3045 
Q 2306 3072 2169 3072 
Q 1681 3072 1420 2755 
Q 1159 2438 1159 1844 
L 1159 0 
L 581 0 
L 581 3500 
L 1159 3500 
L 1159 2956 
Q 1341 3275 1631 3429 
Q 1922 3584 2338 3584 
Q 2397 3584 2469 3576 
Q 2541 3569 2628 3553 
L 2631 2963 
z
" transform="scale(0.015625)"/>
        <path id="DejaVuSans-6c" d="M 603 4863 
L 1178 4863 
L 1178 0 
L 603 0 
L 603 4863 
z
" transform="scale(0.015625)"/>
        <path id="DejaVuSans-4d" d="M 628 4666 
L 1569 4666 
L 2759 1491 
L 3956 4666 
L 4897 4666 
L 4897 0 
L 4281 0 
L 4281 4097 
L 3078 897 
L 2444 897 
L 1241 4097 
L 1241 0 
L 628 0 
L 628 4666 
z
" transform="scale(0.015625)"/>
        <path id="DejaVuSans-6b" d="M 581 4863 
L 1159 4863 
L 1159 1991 
L 2875 3500 
L 3609 3500 
L 1753 1863 
L 3688 0 
L 2938 0 
L 1159 1709 
L 1159 0 
L 581 0 
L 581 4863 
z
" transform="scale(0.015625)"/>
        <path id="DejaVuSans-6f" d="M 1959 3097 
Q 1497 3097 1228 2736 
Q 959 2375 959 1747 
Q 959 1119 1226 758 
Q 1494 397 1959 397 
Q 2419 397 2687 759 
Q 2956 1122 2956 1747 
Q 2956 2369 2687 2733 
Q 2419 3097 1959 3097 
z
M 1959 3584 
Q 2709 3584 3137 3096 
Q 3566 2609 3566 1747 
Q 3566 888 3137 398 
Q 2709 -91 1959 -91 
Q 1206 -91 779 398 
Q 353 888 353 1747 
Q 353 2609 779 3096 
Q 1206 3584 1959 3584 
z
" transform="scale(0.015625)"/>
        <path id="DejaVuSans-75" d="M 544 1381 
L 544 3500 
L 1119 3500 
L 1119 1403 
Q 1119 906 1312 657 
Q 1506 409 1894 409 
Q 2359 409 2629 706 
Q 2900 1003 2900 1516 
L 2900 3500 
L 3475 3500 
L 3475 0 
L 2900 0 
L 2900 538 
Q 2691 219 2414 64 
Q 2138 -91 1772 -91 
Q 1169 -91 856 284 
Q 544 659 544 1381 
z
M 1991 3584 
L 1991 3584 
z
" transform="scale(0.015625)"/>
        <path id="DejaVuSans-66" d="M 2375 4863 
L 2375 4384 
L 1825 4384 
Q 1516 4384 1395 4259 
Q 1275 4134 1275 3809 
L 1275 3500 
L 2222 3500 
L 2222 3053 
L 1275 3053 
L 1275 0 
L 697 0 
L 697 3053 
L 147 3053 
L 147 3500 
L 697 3500 
L 697 3744 
Q 697 4328 969 4595 
Q 1241 4863 1831 4863 
L 2375 4863 
z
" transform="scale(0.015625)"/>
       </defs>
       <use xlink:href="#DejaVuSans-47"/>
       <use xlink:href="#DejaVuSans-61" x="77.490234"/>
       <use xlink:href="#DejaVuSans-62" x="138.769531"/>
       <use xlink:href="#DejaVuSans-72" x="202.246094"/>
       <use xlink:href="#DejaVuSans-69" x="243.359375"/>
       <use xlink:href="#DejaVuSans-65" x="271.142578"/>
       <use xlink:href="#DejaVuSans-6c" x="332.666016"/>
       <use xlink:href="#DejaVuSans-20" x="360.449219"/>
       <use xlink:href="#DejaVuSans-4d" x="392.236328"/>
       <use xlink:href="#DejaVuSans-61" x="478.515625"/>
       <use xlink:href="#DejaVuSans-6b" x="539.794922"/>
       <use xlink:href="#DejaVuSans-68" x="597.705078"/>
       <use xlink:href="#DejaVuSans-6c" x="661.083984"/>
       <use xlink:href="#DejaVuSans-6f" x="688.867188"/>
       <use xlink:href="#DejaVuSans-75" x="750.048828"/>
       <use xlink:href="#DejaVuSans-66" x="813.427734"/>
      </g>
     </g>
    </g>
    <g id="ytick_3">
     <g id="line2d_10">
      <g>
       <use xlink:href="#m3ffa3b4db3" x="153.7" y="261.604865" style="stroke: #000000; stroke-width: 0.8"/>
      </g>
     </g>
     <g id="text_11">
      <!-- Pablo Hernández de Cos -->
      <g transform="translate(25.2375 265.404084) scale(0.1 -0.1)">
       <defs>
        <path id="DejaVuSans-50" d="M 1259 4147 
L 1259 2394 
L 2053 2394 
Q 2494 2394 2734 2622 
Q 2975 2850 2975 3272 
Q 2975 3691 2734 3919 
Q 2494 4147 2053 4147 
L 1259 4147 
z
M 628 4666 
L 2053 4666 
Q 2838 4666 3239 4311 
Q 3641 3956 3641 3272 
Q 3641 2581 3239 2228 
Q 2838 1875 2053 1875 
L 1259 1875 
L 1259 0 
L 628 0 
L 628 4666 
z
" transform="scale(0.015625)"/>
        <path id="DejaVuSans-48" d="M 628 4666 
L 1259 4666 
L 1259 2753 
L 3553 2753 
L 3553 4666 
L 4184 4666 
L 4184 0 
L 3553 0 
L 3553 2222 
L 1259 2222 
L 1259 0 
L 628 0 
L 628 4666 
z
" transform="scale(0.015625)"/>
        <path id="DejaVuSans-e1" d="M 2194 1759 
Q 1497 1759 1228 1600 
Q 959 1441 959 1056 
Q 959 750 1161 570 
Q 1363 391 1709 391 
Q 2188 391 2477 730 
Q 2766 1069 2766 1631 
L 2766 1759 
L 2194 1759 
z
M 3341 1997 
L 3341 0 
L 2766 0 
L 2766 531 
Q 2569 213 2275 61 
Q 1981 -91 1556 -91 
Q 1019 -91 701 211 
Q 384 513 384 1019 
Q 384 1609 779 1909 
Q 1175 2209 1959 2209 
L 2766 2209 
L 2766 2266 
Q 2766 2663 2505 2880 
Q 2244 3097 1772 3097 
Q 1472 3097 1187 3025 
Q 903 2953 641 2809 
L 641 3341 
Q 956 3463 1253 3523 
Q 1550 3584 1831 3584 
Q 2591 3584 2966 3190 
Q 3341 2797 3341 1997 
z
M 2291 5119 
L 2913 5119 
L 1894 3944 
L 1416 3944 
L 2291 5119 
z
" transform="scale(0.015625)"/>
        <path id="DejaVuSans-7a" d="M 353 3500 
L 3084 3500 
L 3084 2975 
L 922 459 
L 3084 459 
L 3084 0 
L 275 0 
L 275 525 
L 2438 3041 
L 353 3041 
L 353 3500 
z
" transform="scale(0.015625)"/>
        <path id="DejaVuSans-43" d="M 4122 4306 
L 4122 3641 
Q 3803 3938 3442 4084 
Q 3081 4231 2675 4231 
Q 1875 4231 1450 3742 
Q 1025 3253 1025 2328 
Q 1025 1406 1450 917 
Q 1875 428 2675 428 
Q 3081 428 3442 575 
Q 3803 722 4122 1019 
L 4122 359 
Q 3791 134 3420 21 
Q 3050 -91 2638 -91 
Q 1578 -91 968 557 
Q 359 1206 359 2328 
Q 359 3453 968 4101 
Q 1578 4750 2638 4750 
Q 3056 4750 3426 4639 
Q 3797 4528 4122 4306 
z
" transform="scale(0.015625)"/>
       </defs>
       <use xlink:href="#DejaVuSans-50"/>
       <use xlink:href="#DejaVuSans-61" x="55.802734"/>
       <use xlink:href="#DejaVuSans-62" x="117.082031"/>
       <use xlink:href="#DejaVuSans-6c" x="180.558594"/>
       <use xlink:href="#DejaVuSans-6f" x="208.341797"/>
       <use xlink:href="#DejaVuSans-20" x="269.523438"/>
       <use xlink:href="#DejaVuSans-48" x="301.310547"/>
       <use xlink:href="#DejaVuSans-65" x="376.505859"/>
       <use xlink:href="#DejaVuSans-72" x="438.029297"/>
       <use xlink:href="#DejaVuSans-6e" x="477.392578"/>
       <use xlink:href="#DejaVuSans-e1" x="540.771484"/>
       <use xlink:href="#DejaVuSans-6e" x="602.050781"/>
       <use xlink:href="#DejaVuSans-64" x="665.429688"/>
       <use xlink:href="#DejaVuSans-65" x="728.90625"/>
       <use xlink:href="#DejaVuSans-7a" x="790.429688"/>
       <use xlink:href="#DejaVuSans-20" x="842.919922"/>
       <use xlink:href="#DejaVuSans-64" x="874.707031"/>
       <use xlink:href="#DejaVuSans-65" x="938.183594"/>
       <use xlink:href="#DejaVuSans-20" x="999.707031"/>
       <use xlink:href="#DejaVuSans-43" x="1031.494141"/>
       <use xlink:href="#DejaVuSans-6f" x="1101.318359"/>
       <use xlink:href="#DejaVuSans-73" x="1162.5"/>
      </g>
     </g>
    </g>
    <g id="ytick_4">
     <g id="line2d_11">
      <g>
       <use xlink:href="#m3ffa3b4db3" x="153.7" y="243.631892" style="stroke: #000000; stroke-width: 0.8"/>
      </g>
     </g>
     <g id="text_12">
      <!-- Piero Cipollone -->
      <g transform="translate(72.3875 247.431111) scale(0.1 -0.1)">
       <use xlink:href="#DejaVuSans-50"/>
       <use xlink:href="#DejaVuSans-69" x="58.052734"/>
       <use xlink:href="#DejaVuSans-65" x="85.835938"/>
       <use xlink:href="#DejaVuSans-72" x="147.359375"/>
       <use xlink:href="#DejaVuSans-6f" x="186.222656"/>
       <use xlink:href="#DejaVuSans-20" x="247.404297"/>
       <use xlink:href="#DejaVuSans-43" x="279.191406"/>
       <use xlink:href="#DejaVuSans-69" x="349.015625"/>
       <use xlink:href="#DejaVuSans-70" x="376.798828"/>
       <use xlink:href="#DejaVuSans-6f" x="440.275391"/>
       <use xlink:href="#DejaVuSans-6c" x="501.457031"/>
       <use xlink:href="#DejaVuSans-6c" x="529.240234"/>
       <use xlink:href="#DejaVuSans-6f" x="557.023438"/>
       <use xlink:href="#DejaVuSans-6e" x="618.205078"/>
       <use xlink:href="#DejaVuSans-65" x="681.583984"/>
      </g>
     </g>
    </g>
    <g id="ytick_5">
     <g id="line2d_12">
      <g>
       <use xlink:href="#m3ffa3b4db3" x="153.7" y="225.658919" style="stroke: #000000; stroke-width: 0.8"/>
      </g>
     </g>
     <g id="text_13">
      <!-- Ravi Menon -->
      <g transform="translate(88.398437 229.458138) scale(0.1 -0.1)">
       <defs>
        <path id="DejaVuSans-52" d="M 2841 2188 
Q 3044 2119 3236 1894 
Q 3428 1669 3622 1275 
L 4263 0 
L 3584 0 
L 2988 1197 
Q 2756 1666 2539 1819 
Q 2322 1972 1947 1972 
L 1259 1972 
L 1259 0 
L 628 0 
L 628 4666 
L 2053 4666 
Q 2853 4666 3247 4331 
Q 3641 3997 3641 3322 
Q 3641 2881 3436 2590 
Q 3231 2300 2841 2188 
z
M 1259 4147 
L 1259 2491 
L 2053 2491 
Q 2509 2491 2742 2702 
Q 2975 2913 2975 3322 
Q 2975 3731 2742 3939 
Q 2509 4147 2053 4147 
L 1259 4147 
z
" transform="scale(0.015625)"/>
        <path id="DejaVuSans-76" d="M 191 3500 
L 800 3500 
L 1894 563 
L 2988 3500 
L 3597 3500 
L 2284 0 
L 1503 0 
L 191 3500 
z
" transform="scale(0.015625)"/>
       </defs>
       <use xlink:href="#DejaVuSans-52"/>
       <use xlink:href="#DejaVuSans-61" x="67.232422"/>
       <use xlink:href="#DejaVuSans-76" x="128.511719"/>
       <use xlink:href="#DejaVuSans-69" x="187.691406"/>
       <use xlink:href="#DejaVuSans-20" x="215.474609"/>
       <use xlink:href="#DejaVuSans-4d" x="247.261719"/>
       <use xlink:href="#DejaVuSans-65" x="333.541016"/>
       <use xlink:href="#DejaVuSans-6e" x="395.064453"/>
       <use xlink:href="#DejaVuSans-6f" x="458.443359"/>
       <use xlink:href="#DejaVuSans-6e" x="519.625"/>
      </g>
     </g>
    </g>
    <g id="ytick_6">
     <g id="line2d_13">
      <g>
       <use xlink:href="#m3ffa3b4db3" x="153.7" y="207.685946" style="stroke: #000000; stroke-width: 0.8"/>
      </g>
     </g>
     <g id="text_14">
      <!-- Yves Mersch -->
      <g transform="translate(84.195312 211.485165) scale(0.1 -0.1)">
       <defs>
        <path id="DejaVuSans-59" d="M -13 4666 
L 666 4666 
L 1959 2747 
L 3244 4666 
L 3922 4666 
L 2272 2222 
L 2272 0 
L 1638 0 
L 1638 2222 
L -13 4666 
z
" transform="scale(0.015625)"/>
       </defs>
       <use xlink:href="#DejaVuSans-59"/>
       <use xlink:href="#DejaVuSans-76" x="61.083984"/>
       <use xlink:href="#DejaVuSans-65" x="120.263672"/>
       <use xlink:href="#DejaVuSans-73" x="181.787109"/>
       <use xlink:href="#DejaVuSans-20" x="233.886719"/>
       <use xlink:href="#DejaVuSans-4d" x="265.673828"/>
       <use xlink:href="#DejaVuSans-65" x="351.953125"/>
       <use xlink:href="#DejaVuSans-72" x="413.476562"/>
       <use xlink:href="#DejaVuSans-73" x="454.589844"/>
       <use xlink:href="#DejaVuSans-63" x="506.689453"/>
       <use xlink:href="#DejaVuSans-68" x="561.669922"/>
      </g>
     </g>
    </g>
    <g id="ytick_7">
     <g id="line2d_14">
      <g>
       <use xlink:href="#m3ffa3b4db3" x="153.7" y="189.712973" style="stroke: #000000; stroke-width: 0.8"/>
      </g>
     </g>
     <g id="text_15">
      <!-- Benoît Cœuré -->
      <g transform="translate(77.764062 193.512192) scale(0.1 -0.1)">
       <defs>
        <path id="DejaVuSans-42" d="M 1259 2228 
L 1259 519 
L 2272 519 
Q 2781 519 3026 730 
Q 3272 941 3272 1375 
Q 3272 1813 3026 2020 
Q 2781 2228 2272 2228 
L 1259 2228 
z
M 1259 4147 
L 1259 2741 
L 2194 2741 
Q 2656 2741 2882 2914 
Q 3109 3088 3109 3444 
Q 3109 3797 2882 3972 
Q 2656 4147 2194 4147 
L 1259 4147 
z
M 628 4666 
L 2241 4666 
Q 2963 4666 3353 4366 
Q 3744 4066 3744 3513 
Q 3744 3084 3544 2831 
Q 3344 2578 2956 2516 
Q 3422 2416 3680 2098 
Q 3938 1781 3938 1306 
Q 3938 681 3513 340 
Q 3088 0 2303 0 
L 628 0 
L 628 4666 
z
" transform="scale(0.015625)"/>
        <path id="DejaVuSans-ee" d="M 603 3500 
L 1178 3500 
L 1178 0 
L 603 0 
L 603 3500 
z
M 891 3584 
L 891 3584 
z
M 659 5119 
L 1122 5119 
L 1888 3944 
L 1453 3944 
L 891 4709 
L 328 3944 
L -106 3944 
L 659 5119 
z
" transform="scale(0.015625)"/>
        <path id="DejaVuSans-74" d="M 1172 4494 
L 1172 3500 
L 2356 3500 
L 2356 3053 
L 1172 3053 
L 1172 1153 
Q 1172 725 1289 603 
Q 1406 481 1766 481 
L 2356 481 
L 2356 0 
L 1766 0 
Q 1100 0 847 248 
Q 594 497 594 1153 
L 594 3053 
L 172 3053 
L 172 3500 
L 594 3500 
L 594 4494 
L 1172 4494 
z
" transform="scale(0.015625)"/>
        <path id="DejaVuSans-153" d="M 5631 2063 
Q 5625 2538 5369 2817 
Q 5113 3097 4684 3097 
Q 4206 3097 3917 2825 
Q 3628 2553 3584 2059 
L 5631 2063 
z
M 6209 1894 
L 6209 1613 
L 3566 1613 
Q 3603 1019 3922 708 
Q 4241 397 4813 397 
Q 5144 397 5456 478 
Q 5769 559 6075 722 
L 6075 178 
Q 5763 47 5438 -22 
Q 5113 -91 4781 -91 
Q 4281 -91 3903 81 
Q 3525 253 3272 594 
Q 3050 250 2723 79 
Q 2397 -91 1959 -91 
Q 1206 -91 779 398 
Q 353 888 353 1747 
Q 353 2609 779 3096 
Q 1206 3584 1959 3584 
Q 2397 3584 2726 3411 
Q 3056 3238 3263 2900 
Q 3506 3234 3868 3409 
Q 4231 3584 4678 3584 
Q 5384 3584 5796 3129 
Q 6209 2675 6209 1894 
z
M 1959 3097 
Q 1497 3097 1228 2736 
Q 959 2375 959 1747 
Q 959 1119 1226 758 
Q 1494 397 1959 397 
Q 2419 397 2687 759 
Q 2956 1122 2956 1747 
Q 2956 2369 2687 2733 
Q 2419 3097 1959 3097 
z
" transform="scale(0.015625)"/>
        <path id="DejaVuSans-e9" d="M 3597 1894 
L 3597 1613 
L 953 1613 
Q 991 1019 1311 708 
Q 1631 397 2203 397 
Q 2534 397 2845 478 
Q 3156 559 3463 722 
L 3463 178 
Q 3153 47 2828 -22 
Q 2503 -91 2169 -91 
Q 1331 -91 842 396 
Q 353 884 353 1716 
Q 353 2575 817 3079 
Q 1281 3584 2069 3584 
Q 2775 3584 3186 3129 
Q 3597 2675 3597 1894 
z
M 3022 2063 
Q 3016 2534 2758 2815 
Q 2500 3097 2075 3097 
Q 1594 3097 1305 2825 
Q 1016 2553 972 2059 
L 3022 2063 
z
M 2469 5119 
L 3091 5119 
L 2072 3944 
L 1594 3944 
L 2469 5119 
z
" transform="scale(0.015625)"/>
       </defs>
       <use xlink:href="#DejaVuSans-42"/>
       <use xlink:href="#DejaVuSans-65" x="68.603516"/>
       <use xlink:href="#DejaVuSans-6e" x="130.126953"/>
       <use xlink:href="#DejaVuSans-6f" x="193.505859"/>
       <use xlink:href="#DejaVuSans-ee" x="254.6875"/>
       <use xlink:href="#DejaVuSans-74" x="282.470703"/>
       <use xlink:href="#DejaVuSans-20" x="321.679688"/>
       <use xlink:href="#DejaVuSans-43" x="353.466797"/>
       <use xlink:href="#DejaVuSans-153" x="423.291016"/>
       <use xlink:href="#DejaVuSans-75" x="525.585938"/>
       <use xlink:href="#DejaVuSans-72" x="588.964844"/>
       <use xlink:href="#DejaVuSans-e9" x="627.828125"/>
      </g>
     </g>
    </g>
    <g id="ytick_8">
     <g id="line2d_15">
      <g>
       <use xlink:href="#m3ffa3b4db3" x="153.7" y="171.74" style="stroke: #000000; stroke-width: 0.8"/>
      </g>
     </g>
     <g id="text_16">
      <!-- Shaktikanta Das -->
      <g transform="translate(65.051562 175.539219) scale(0.1 -0.1)">
       <defs>
        <path id="DejaVuSans-44" d="M 1259 4147 
L 1259 519 
L 2022 519 
Q 2988 519 3436 956 
Q 3884 1394 3884 2338 
Q 3884 3275 3436 3711 
Q 2988 4147 2022 4147 
L 1259 4147 
z
M 628 4666 
L 1925 4666 
Q 3281 4666 3915 4102 
Q 4550 3538 4550 2338 
Q 4550 1131 3912 565 
Q 3275 0 1925 0 
L 628 0 
L 628 4666 
z
" transform="scale(0.015625)"/>
       </defs>
       <use xlink:href="#DejaVuSans-53"/>
       <use xlink:href="#DejaVuSans-68" x="63.476562"/>
       <use xlink:href="#DejaVuSans-61" x="126.855469"/>
       <use xlink:href="#DejaVuSans-6b" x="188.134766"/>
       <use xlink:href="#DejaVuSans-74" x="246.044922"/>
       <use xlink:href="#DejaVuSans-69" x="285.253906"/>
       <use xlink:href="#DejaVuSans-6b" x="313.037109"/>
       <use xlink:href="#DejaVuSans-61" x="369.197266"/>
       <use xlink:href="#DejaVuSans-6e" x="430.476562"/>
       <use xlink:href="#DejaVuSans-74" x="493.855469"/>
       <use xlink:href="#DejaVuSans-61" x="533.064453"/>
       <use xlink:href="#DejaVuSans-20" x="594.34375"/>
       <use xlink:href="#DejaVuSans-44" x="626.130859"/>
       <use xlink:href="#DejaVuSans-61" x="703.132812"/>
       <use xlink:href="#DejaVuSans-73" x="764.412109"/>
      </g>
     </g>
    </g>
    <g id="ytick_9">
     <g id="line2d_16">
      <g>
       <use xlink:href="#m3ffa3b4db3" x="153.7" y="153.767027" style="stroke: #000000; stroke-width: 0.8"/>
      </g>
     </g>
     <g id="text_17">
      <!-- Joachim Nagel -->
      <g transform="translate(75.08125 157.566246) scale(0.1 -0.1)">
       <defs>
        <path id="DejaVuSans-4e" d="M 628 4666 
L 1478 4666 
L 3547 763 
L 3547 4666 
L 4159 4666 
L 4159 0 
L 3309 0 
L 1241 3903 
L 1241 0 
L 628 0 
L 628 4666 
z
" transform="scale(0.015625)"/>
        <path id="DejaVuSans-67" d="M 2906 1791 
Q 2906 2416 2648 2759 
Q 2391 3103 1925 3103 
Q 1463 3103 1205 2759 
Q 947 2416 947 1791 
Q 947 1169 1205 825 
Q 1463 481 1925 481 
Q 2391 481 2648 825 
Q 2906 1169 2906 1791 
z
M 3481 434 
Q 3481 -459 3084 -895 
Q 2688 -1331 1869 -1331 
Q 1566 -1331 1297 -1286 
Q 1028 -1241 775 -1147 
L 775 -588 
Q 1028 -725 1275 -790 
Q 1522 -856 1778 -856 
Q 2344 -856 2625 -561 
Q 2906 -266 2906 331 
L 2906 616 
Q 2728 306 2450 153 
Q 2172 0 1784 0 
Q 1141 0 747 490 
Q 353 981 353 1791 
Q 353 2603 747 3093 
Q 1141 3584 1784 3584 
Q 2172 3584 2450 3431 
Q 2728 3278 2906 2969 
L 2906 3500 
L 3481 3500 
L 3481 434 
z
" transform="scale(0.015625)"/>
       </defs>
       <use xlink:href="#DejaVuSans-4a"/>
       <use xlink:href="#DejaVuSans-6f" x="29.492188"/>
       <use xlink:href="#DejaVuSans-61" x="90.673828"/>
       <use xlink:href="#DejaVuSans-63" x="151.953125"/>
       <use xlink:href="#DejaVuSans-68" x="206.933594"/>
       <use xlink:href="#DejaVuSans-69" x="270.3125"/>
       <use xlink:href="#DejaVuSans-6d" x="298.095703"/>
       <use xlink:href="#DejaVuSans-20" x="395.507812"/>
       <use xlink:href="#DejaVuSans-4e" x="427.294922"/>
       <use xlink:href="#DejaVuSans-61" x="502.099609"/>
       <use xlink:href="#DejaVuSans-67" x="563.378906"/>
       <use xlink:href="#DejaVuSans-65" x="626.855469"/>
       <use xlink:href="#DejaVuSans-6c" x="688.378906"/>
      </g>
     </g>
    </g>
    <g id="ytick_10">
     <g id="line2d_17">
      <g>
       <use xlink:href="#m3ffa3b4db3" x="153.7" y="135.794054" style="stroke: #000000; stroke-width: 0.8"/>
      </g>
     </g>
     <g id="text_18">
      <!-- Eddie Yue -->
      <g transform="translate(98.126562 139.593273) scale(0.1 -0.1)">
       <defs>
        <path id="DejaVuSans-45" d="M 628 4666 
L 3578 4666 
L 3578 4134 
L 1259 4134 
L 1259 2753 
L 3481 2753 
L 3481 2222 
L 1259 2222 
L 1259 531 
L 3634 531 
L 3634 0 
L 628 0 
L 628 4666 
z
" transform="scale(0.015625)"/>
       </defs>
       <use xlink:href="#DejaVuSans-45"/>
       <use xlink:href="#DejaVuSans-64" x="63.183594"/>
       <use xlink:href="#DejaVuSans-64" x="126.660156"/>
       <use xlink:href="#DejaVuSans-69" x="190.136719"/>
       <use xlink:href="#DejaVuSans-65" x="217.919922"/>
       <use xlink:href="#DejaVuSans-20" x="279.443359"/>
       <use xlink:href="#DejaVuSans-59" x="311.230469"/>
       <use xlink:href="#DejaVuSans-75" x="360.814453"/>
       <use xlink:href="#DejaVuSans-65" x="424.193359"/>
      </g>
     </g>
    </g>
    <g id="ytick_11">
     <g id="line2d_18">
      <g>
       <use xlink:href="#m3ffa3b4db3" x="153.7" y="117.821081" style="stroke: #000000; stroke-width: 0.8"/>
      </g>
     </g>
     <g id="text_19">
      <!-- Christine Lagarde -->
      <g transform="translate(58.3 121.6203) scale(0.1 -0.1)">
       <defs>
        <path id="DejaVuSans-4c" d="M 628 4666 
L 1259 4666 
L 1259 531 
L 3531 531 
L 3531 0 
L 628 0 
L 628 4666 
z
" transform="scale(0.015625)"/>
       </defs>
       <use xlink:href="#DejaVuSans-43"/>
       <use xlink:href="#DejaVuSans-68" x="69.824219"/>
       <use xlink:href="#DejaVuSans-72" x="133.203125"/>
       <use xlink:href="#DejaVuSans-69" x="174.316406"/>
       <use xlink:href="#DejaVuSans-73" x="202.099609"/>
       <use xlink:href="#DejaVuSans-74" x="254.199219"/>
       <use xlink:href="#DejaVuSans-69" x="293.408203"/>
       <use xlink:href="#DejaVuSans-6e" x="321.191406"/>
       <use xlink:href="#DejaVuSans-65" x="384.570312"/>
       <use xlink:href="#DejaVuSans-20" x="446.09375"/>
       <use xlink:href="#DejaVuSans-4c" x="477.880859"/>
       <use xlink:href="#DejaVuSans-61" x="533.59375"/>
       <use xlink:href="#DejaVuSans-67" x="594.873047"/>
       <use xlink:href="#DejaVuSans-61" x="658.349609"/>
       <use xlink:href="#DejaVuSans-72" x="719.628906"/>
       <use xlink:href="#DejaVuSans-64" x="758.992188"/>
       <use xlink:href="#DejaVuSans-65" x="822.46875"/>
      </g>
     </g>
    </g>
    <g id="ytick_12">
     <g id="line2d_19">
      <g>
       <use xlink:href="#m3ffa3b4db3" x="153.7" y="99.848108" style="stroke: #000000; stroke-width: 0.8"/>
      </g>
     </g>
     <g id="text_20">
      <!-- Burkhard Balz -->
      <g transform="translate(76.65625 103.647327) scale(0.1 -0.1)">
       <use xlink:href="#DejaVuSans-42"/>
       <use xlink:href="#DejaVuSans-75" x="68.603516"/>
       <use xlink:href="#DejaVuSans-72" x="131.982422"/>
       <use xlink:href="#DejaVuSans-6b" x="173.095703"/>
       <use xlink:href="#DejaVuSans-68" x="231.005859"/>
       <use xlink:href="#DejaVuSans-61" x="294.384766"/>
       <use xlink:href="#DejaVuSans-72" x="355.664062"/>
       <use xlink:href="#DejaVuSans-64" x="395.027344"/>
       <use xlink:href="#DejaVuSans-20" x="458.503906"/>
       <use xlink:href="#DejaVuSans-42" x="490.291016"/>
       <use xlink:href="#DejaVuSans-61" x="558.894531"/>
       <use xlink:href="#DejaVuSans-6c" x="620.173828"/>
       <use xlink:href="#DejaVuSans-7a" x="647.957031"/>
      </g>
     </g>
    </g>
    <g id="ytick_13">
     <g id="line2d_20">
      <g>
       <use xlink:href="#m3ffa3b4db3" x="153.7" y="81.875135" style="stroke: #000000; stroke-width: 0.8"/>
      </g>
     </g>
     <g id="text_21">
      <!-- Fabio Panetta -->
      <g transform="translate(79.142187 85.674354) scale(0.1 -0.1)">
       <defs>
        <path id="DejaVuSans-46" d="M 628 4666 
L 3309 4666 
L 3309 4134 
L 1259 4134 
L 1259 2759 
L 3109 2759 
L 3109 2228 
L 1259 2228 
L 1259 0 
L 628 0 
L 628 4666 
z
" transform="scale(0.015625)"/>
       </defs>
       <use xlink:href="#DejaVuSans-46"/>
       <use xlink:href="#DejaVuSans-61" x="48.394531"/>
       <use xlink:href="#DejaVuSans-62" x="109.673828"/>
       <use xlink:href="#DejaVuSans-69" x="173.150391"/>
       <use xlink:href="#DejaVuSans-6f" x="200.933594"/>
       <use xlink:href="#DejaVuSans-20" x="262.115234"/>
       <use xlink:href="#DejaVuSans-50" x="293.902344"/>
       <use xlink:href="#DejaVuSans-61" x="349.705078"/>
       <use xlink:href="#DejaVuSans-6e" x="410.984375"/>
       <use xlink:href="#DejaVuSans-65" x="474.363281"/>
       <use xlink:href="#DejaVuSans-74" x="535.886719"/>
       <use xlink:href="#DejaVuSans-74" x="575.095703"/>
       <use xlink:href="#DejaVuSans-61" x="614.304688"/>
      </g>
     </g>
    </g>
    <g id="ytick_14">
     <g id="line2d_21">
      <g>
       <use xlink:href="#m3ffa3b4db3" x="153.7" y="63.902162" style="stroke: #000000; stroke-width: 0.8"/>
      </g>
     </g>
     <g id="text_22">
      <!-- François Villeroy de Galhau -->
      <g transform="translate(10.971875 67.701381) scale(0.1 -0.1)">
       <defs>
        <path id="DejaVuSans-e7" d="M 3122 3366 
L 3122 2828 
Q 2878 2963 2633 3030 
Q 2388 3097 2138 3097 
Q 1578 3097 1268 2742 
Q 959 2388 959 1747 
Q 959 1106 1268 751 
Q 1578 397 2138 397 
Q 2388 397 2633 464 
Q 2878 531 3122 666 
L 3122 134 
Q 2881 22 2623 -34 
Q 2366 -91 2075 -91 
Q 1284 -91 818 406 
Q 353 903 353 1747 
Q 353 2603 823 3093 
Q 1294 3584 2113 3584 
Q 2378 3584 2631 3529 
Q 2884 3475 3122 3366 
z
M 2309 0 
Q 2481 -194 2565 -358 
Q 2650 -522 2650 -672 
Q 2650 -950 2462 -1092 
Q 2275 -1234 1906 -1234 
Q 1763 -1234 1627 -1215 
Q 1491 -1197 1356 -1159 
L 1356 -750 
Q 1463 -803 1578 -826 
Q 1694 -850 1841 -850 
Q 2025 -850 2119 -775 
Q 2213 -700 2213 -556 
Q 2213 -463 2145 -327 
Q 2078 -191 1938 0 
L 2309 0 
z
" transform="scale(0.015625)"/>
        <path id="DejaVuSans-56" d="M 1831 0 
L 50 4666 
L 709 4666 
L 2188 738 
L 3669 4666 
L 4325 4666 
L 2547 0 
L 1831 0 
z
" transform="scale(0.015625)"/>
        <path id="DejaVuSans-79" d="M 2059 -325 
Q 1816 -950 1584 -1140 
Q 1353 -1331 966 -1331 
L 506 -1331 
L 506 -850 
L 844 -850 
Q 1081 -850 1212 -737 
Q 1344 -625 1503 -206 
L 1606 56 
L 191 3500 
L 800 3500 
L 1894 763 
L 2988 3500 
L 3597 3500 
L 2059 -325 
z
" transform="scale(0.015625)"/>
       </defs>
       <use xlink:href="#DejaVuSans-46"/>
       <use xlink:href="#DejaVuSans-72" x="50.269531"/>
       <use xlink:href="#DejaVuSans-61" x="91.382812"/>
       <use xlink:href="#DejaVuSans-6e" x="152.662109"/>
       <use xlink:href="#DejaVuSans-e7" x="216.041016"/>
       <use xlink:href="#DejaVuSans-6f" x="271.021484"/>
       <use xlink:href="#DejaVuSans-69" x="332.203125"/>
       <use xlink:href="#DejaVuSans-73" x="359.986328"/>
       <use xlink:href="#DejaVuSans-20" x="412.085938"/>
       <use xlink:href="#DejaVuSans-56" x="443.873047"/>
       <use xlink:href="#DejaVuSans-69" x="510.03125"/>
       <use xlink:href="#DejaVuSans-6c" x="537.814453"/>
       <use xlink:href="#DejaVuSans-6c" x="565.597656"/>
       <use xlink:href="#DejaVuSans-65" x="593.380859"/>
       <use xlink:href="#DejaVuSans-72" x="654.904297"/>
       <use xlink:href="#DejaVuSans-6f" x="693.767578"/>
       <use xlink:href="#DejaVuSans-79" x="754.949219"/>
       <use xlink:href="#DejaVuSans-20" x="814.128906"/>
       <use xlink:href="#DejaVuSans-64" x="845.916016"/>
       <use xlink:href="#DejaVuSans-65" x="909.392578"/>
       <use xlink:href="#DejaVuSans-20" x="970.916016"/>
       <use xlink:href="#DejaVuSans-47" x="1002.703125"/>
       <use xlink:href="#DejaVuSans-61" x="1080.193359"/>
       <use xlink:href="#DejaVuSans-6c" x="1141.472656"/>
       <use xlink:href="#DejaVuSans-68" x="1169.255859"/>
       <use xlink:href="#DejaVuSans-61" x="1232.634766"/>
       <use xlink:href="#DejaVuSans-75" x="1293.914062"/>
      </g>
     </g>
    </g>
    <g id="ytick_15">
     <g id="line2d_22">
      <g>
       <use xlink:href="#m3ffa3b4db3" x="153.7" y="45.929189" style="stroke: #000000; stroke-width: 0.8"/>
      </g>
     </g>
     <g id="text_23">
      <!-- Denis Beau -->
      <g transform="translate(89.864062 49.728408) scale(0.1 -0.1)">
       <use xlink:href="#DejaVuSans-44"/>
       <use xlink:href="#DejaVuSans-65" x="77.001953"/>
       <use xlink:href="#DejaVuSans-6e" x="138.525391"/>
       <use xlink:href="#DejaVuSans-69" x="201.904297"/>
       <use xlink:href="#DejaVuSans-73" x="229.6875"/>
       <use xlink:href="#DejaVuSans-20" x="281.787109"/>
       <use xlink:href="#DejaVuSans-42" x="313.574219"/>
       <use xlink:href="#DejaVuSans-65" x="382.177734"/>
       <use xlink:href="#DejaVuSans-61" x="443.701172"/>
       <use xlink:href="#DejaVuSans-75" x="504.980469"/>
      </g>
     </g>
    </g>
   </g>
   <g id="patch_18">
    <path d="M 153.7 318.04 
L 153.7 25.44 
" style="fill: none; stroke: #000000; stroke-width: 0.8; stroke-linejoin: miter; stroke-linecap: square"/>
   </g>
   <g id="patch_19">
    <path d="M 493.2 318.04 
L 493.2 25.44 
" style="fill: none; stroke: #000000; stroke-width: 0.8; stroke-linejoin: miter; stroke-linecap: square"/>
   </g>
   <g id="patch_20">
    <path d="M 153.7 318.04 
L 493.2 318.04 
" style="fill: none; stroke: #000000; stroke-width: 0.8; stroke-linejoin: miter; stroke-linecap: square"/>
   </g>
   <g id="patch_21">
    <path d="M 153.7 25.44 
L 493.2 25.44 
" style="fill: none; stroke: #000000; stroke-width: 0.8; stroke-linejoin: miter; stroke-linecap: square"/>
   </g>
   <g id="text_24">
    <!-- Top Authors by CBDC Mentions -->
    <g transform="translate(230.606563 19.44) scale(0.12 -0.12)">
     <defs>
      <path id="DejaVuSans-54" d="M -19 4666 
L 3928 4666 
L 3928 4134 
L 2272 4134 
L 2272 0 
L 1638 0 
L 1638 4134 
L -19 4134 
L -19 4666 
z
" transform="scale(0.015625)"/>
      <path id="DejaVuSans-41" d="M 2188 4044 
L 1331 1722 
L 3047 1722 
L 2188 4044 
z
M 1831 4666 
L 2547 4666 
L 4325 0 
L 3669 0 
L 3244 1197 
L 1141 1197 
L 716 0 
L 50 0 
L 1831 4666 
z
" transform="scale(0.015625)"/>
     </defs>
     <use xlink:href="#DejaVuSans-54"/>
     <use xlink:href="#DejaVuSans-6f" x="44.083984"/>
     <use xlink:href="#DejaVuSans-70" x="105.265625"/>
     <use xlink:href="#DejaVuSans-20" x="168.742188"/>
     <use xlink:href="#DejaVuSans-41" x="200.529297"/>
     <use xlink:href="#DejaVuSans-75" x="268.9375"/>
     <use xlink:href="#DejaVuSans-74" x="332.316406"/>
     <use xlink:href="#DejaVuSans-68" x="371.525391"/>
     <use xlink:href="#DejaVuSans-6f" x="434.904297"/>
     <use xlink:href="#DejaVuSans-72" x="496.085938"/>
     <use xlink:href="#DejaVuSans-73" x="537.199219"/>
     <use xlink:href="#DejaVuSans-20" x="589.298828"/>
     <use xlink:href="#DejaVuSans-62" x="621.085938"/>
     <use xlink:href="#DejaVuSans-79" x="684.5625"/>
     <use xlink:href="#DejaVuSans-20" x="743.742188"/>
     <use xlink:href="#DejaVuSans-43" x="775.529297"/>
     <use xlink:href="#DejaVuSans-42" x="845.353516"/>
     <use xlink:href="#DejaVuSans-44" x="913.957031"/>
     <use xlink:href="#DejaVuSans-43" x="990.958984"/>
     <use xlink:href="#DejaVuSans-20" x="1060.783203"/>
     <use xlink:href="#DejaVuSans-4d" x="1092.570312"/>
     <use xlink:href="#DejaVuSans-65" x="1178.849609"/>
     <use xlink:href="#DejaVuSans-6e" x="1240.373047"/>
     <use xlink:href="#DejaVuSans-74" x="1303.751953"/>
     <use xlink:href="#DejaVuSans-69" x="1342.960938"/>
     <use xlink:href="#DejaVuSans-6f" x="1370.744141"/>
     <use xlink:href="#DejaVuSans-6e" x="1431.925781"/>
     <use xlink:href="#DejaVuSans-73" x="1495.304688"/>
    </g>
   </g>
  </g>
 </g>
 <defs>
  <clipPath id="p3095ca90a5">
   <rect x="153.7" y="25.44" width="339.5" height="292.6"/>
  </clipPath>
 </defs>
</svg>
